<?xml version="1.0" encoding="UTF-8"?>
<svg width="149px" height="149px" viewBox="0 0 149 149" version="1.1" xmlns="http://www.w3.org/2000/svg" xmlns:xlink="http://www.w3.org/1999/xlink">
    <!-- Generator: Sketch 53.2 (72643) - https://sketchapp.com -->
    <title>1</title>
    <desc>Created with Sketch.</desc>
    <g id="Icons" stroke="none" stroke-width="1" fill="none" fill-rule="evenodd">
        <g id="Artboard-Copy" transform="translate(-261.000000, -278.000000)" stroke="#0BD080" stroke-width="4">
            <g id="1" transform="translate(263.164513, 280.868258)">
                <polygon id="Stroke-21" points="6.45311049e-05 143.884 143.917335 143.884 143.917335 0.000129032258 6.45311049e-05 0.000129032258"></polygon>
                <path d="M0.000322655525,7.10542736e-15 L62.9988138,62.983871" id="Stroke-23"></path>
                <path d="M80.9191017,80.9003226 L143.917593,143.883548" id="Stroke-24"></path>
                <path d="M143.917335,7.10542736e-15 L80.9188435,62.983871" id="Stroke-25"></path>
                <path d="M62.9984912,80.9003226 L1.42108547e-14,143.883548" id="Stroke-26"></path>
                <path d="M62.9984912,62.9835484 C67.9467363,58.0358065 75.9705339,58.0358065 80.9194243,62.9835484 C85.8676695,67.9306452 85.8676695,75.9525806 80.9194243,80.9003226 C75.9705339,85.8474194 67.9467363,85.8474194 62.9984912,80.9003226 C58.0496007,75.9525806 58.0496007,67.9306452 62.9984912,62.9835484 Z" id="Stroke-27"></path>
            </g>
        </g>
    </g>
</svg>