<?xml version="1.0" encoding="UTF-8"?>
<svg width="155px" height="156px" viewBox="0 0 155 156" version="1.1" xmlns="http://www.w3.org/2000/svg" xmlns:xlink="http://www.w3.org/1999/xlink">
    <!-- Generator: Sketch 53.2 (72643) - https://sketchapp.com -->
    <title>3</title>
    <desc>Created with Sketch.</desc>
    <g id="Icons" stroke="none" stroke-width="1" fill="none" fill-rule="evenodd">
        <g id="Artboard-Copy" transform="translate(-776.000000, -271.000000)" stroke="#0BD080" stroke-width="4">
            <g id="3" transform="translate(778.050810, 273.881000)">
                <path d="M4.07175139,4.07080645 C9.50075325,-1.35693548 18.3034413,-1.35693548 23.7324431,4.07080645 C29.161445,9.49854839 29.161445,18.2991935 23.7324431,23.7262903 C18.3034413,29.1540323 9.50075325,29.1540323 4.07175139,23.7262903 C-1.35725046,18.2991935 -1.35725046,9.49854839 4.07175139,4.07080645 Z" id="Stroke-58"></path>
                <path d="M127.173675,127.144484 C132.602677,121.716742 141.405365,121.716742 146.834367,127.144484 C152.263368,132.572226 152.263368,141.372226 146.834367,146.799968 C141.405365,152.22771 132.602677,152.22771 127.173675,146.799968 C121.744673,141.372226 121.744673,132.572226 127.173675,127.144484 Z" id="Stroke-59"></path>
                <path d="M34.0402546,34.1256452 L34.9527245,35.0385484" id="Stroke-60"></path>
                <path d="M36.7532068,36.8376452 L115.052668,115.118935" id="Stroke-61" stroke-dasharray="3.945,3.945"></path>
                <path d="M115.952555,116.018871 L116.865024,116.931129" id="Stroke-62"></path>
                <path d="M116.184479,34.8048065 L116.092845,34.7131935 C93.6476363,12.2738387 57.2579009,12.2738387 34.812692,34.7131935 L34.7217031,34.8048065 C12.2764942,57.2448065 12.2764942,93.6260968 34.7217031,116.066097 L34.812692,116.15771" id="Stroke-63"></path>
                <path d="M34.8128856,116.157516 L34.8128856,116.157516 C57.2574492,138.596871 93.6478299,138.596871 116.093039,116.157516 L116.184673,116.065903 C138.629237,93.6265484 138.629237,57.2446129 116.184673,34.8052581 L116.184673,34.8046129" id="Stroke-64"></path>
            </g>
        </g>
    </g>
</svg>