<?xml version="1.0" encoding="UTF-8"?>
<svg width="164px" height="164px" viewBox="0 0 164 164" version="1.1" xmlns="http://www.w3.org/2000/svg" xmlns:xlink="http://www.w3.org/1999/xlink">
    <!-- Generator: Sketch 53.2 (72643) - https://sketchapp.com -->
    <title>4</title>
    <desc>Created with Sketch.</desc>
    <g id="Icons" stroke="none" stroke-width="1" fill="none" fill-rule="evenodd">
        <g id="Artboard-Copy" transform="translate(-253.000000, -562.000000)" stroke="#0BD080" stroke-width="4">
            <g id="4" transform="translate(253.398698, 562.315290)">
                <path d="M10.8053463,81.7056774 C10.8053463,42.5469677 42.5572312,10.8030968 81.7243853,10.8030968 C120.892185,10.8030968 152.64407,42.5469677 152.64407,81.7056774 C152.64407,120.863742 120.892185,152.608258 81.7243853,152.608258 C42.5572312,152.608258 10.8053463,120.863742 10.8053463,81.7056774 Z" id="Stroke-45"></path>
                <path d="M81.7246435,21.6058065 L81.7246435,-5.68434189e-14" id="Stroke-46"></path>
                <path d="M51.6678617,29.6577419 L40.8621281,10.946129" id="Stroke-47"></path>
                <path d="M29.6646263,51.6556129 L10.9493152,40.8523871" id="Stroke-48"></path>
                <path d="M21.6108217,81.7056774 L-1.95399252e-14,81.7056774" id="Stroke-49"></path>
                <path d="M29.6646263,111.755484 L10.9493152,122.55871" id="Stroke-50"></path>
                <path d="M51.6678617,133.753613 L40.8621281,152.464581" id="Stroke-51"></path>
                <path d="M81.7246435,141.805226 L81.7246435,163.411677" id="Stroke-52"></path>
                <path d="M111.781361,133.753613 L122.587094,152.464581" id="Stroke-53"></path>
                <path d="M133.784661,111.755484 L152.499972,122.55871" id="Stroke-54"></path>
                <path d="M141.838465,81.7056774 L163.449287,81.7056774" id="Stroke-55"></path>
                <path d="M133.784661,51.6556129 L152.499972,40.8523871" id="Stroke-56"></path>
                <path d="M111.781361,29.6577419 L122.587094,10.946129" id="Stroke-57"></path>
            </g>
        </g>
    </g>
</svg>