<?xml version="1.0" encoding="UTF-8"?>
<svg width="187px" height="148px" viewBox="0 0 187 148" version="1.1" xmlns="http://www.w3.org/2000/svg" xmlns:xlink="http://www.w3.org/1999/xlink">
    <!-- Generator: Sketch 53.2 (72643) - https://sketchapp.com -->
    <title>5</title>
    <desc>Created with Sketch.</desc>
    <g id="Icons" stroke="none" stroke-width="1" fill="none" fill-rule="evenodd">
        <g id="Artboard-Copy" transform="translate(-500.000000, -570.000000)" stroke="#0BD080" stroke-width="4">
            <g id="5" transform="translate(502.361088, 572.078968)">
                <polyline id="Stroke-33" points="18.9184227 22.8729032 18.9184227 5.68434189e-14 162.835693 5.68434189e-14 162.835693 22.8729032"></polyline>
                <polyline id="Stroke-34" points="18.9184227 120.963871 18.9184227 143.883226 162.835693 143.883226 162.835693 121.010968"></polyline>
                <path d="M5.54112465,28.4128387 C12.9292909,21.0263871 24.9075545,21.0263871 32.2957208,28.4128387 C39.683887,35.7992903 39.683887,47.7747742 32.2957208,55.1612258 C24.9075545,62.5476774 12.9292909,62.5476774 5.54112465,55.1612258 C-1.84704155,47.7747742 -1.84704155,35.7992903 5.54112465,28.4128387 Z" id="Stroke-35"></path>
                <path d="M77.4996307,28.4128387 C84.8877969,21.0263871 96.8660606,21.0263871 104.254227,28.4128387 C111.643038,35.7992903 111.643038,47.7747742 104.254227,55.1612258 C96.8660606,62.5476774 84.8877969,62.5476774 77.4996307,55.1612258 C70.1114645,47.7747742 70.1114645,35.7992903 77.4996307,28.4128387 Z" id="Stroke-36"></path>
                <path d="M149.457814,28.4128387 C156.84598,21.0263871 168.824889,21.0263871 176.213055,28.4128387 C183.601222,35.7992903 183.601222,47.7747742 176.213055,55.1612258 C168.824889,62.5476774 156.84598,62.5476774 149.457814,55.1612258 C142.070293,47.7747742 142.070293,35.7992903 149.457814,28.4128387 Z" id="Stroke-37"></path>
                <path d="M77.4996307,88.7225161 C84.8877969,81.3360645 96.8660606,81.3360645 104.254227,88.7225161 C111.643038,96.1089677 111.643038,108.084452 104.254227,115.470903 C96.8660606,122.857355 84.8877969,122.857355 77.4996307,115.470903 C70.1114645,108.084452 70.1114645,96.1089677 77.4996307,88.7225161 Z" id="Stroke-38"></path>
                <path d="M5.54112465,88.7225161 C12.9292909,81.3360645 24.9075545,81.3360645 32.2957208,88.7225161 C39.683887,96.1089677 39.683887,108.084452 32.2957208,115.470903 C24.9075545,122.857355 12.9292909,122.857355 5.54112465,115.470903 C-1.84704155,108.084452 -1.84704155,96.1089677 5.54112465,88.7225161 Z" id="Stroke-39"></path>
                <path d="M149.457814,88.7225161 C156.84598,81.3360645 168.824889,81.3360645 176.213055,88.7225161 C183.601222,96.1089677 183.601222,108.084452 176.213055,115.470903 C168.824889,122.857355 156.84598,122.857355 149.457814,115.470903 C142.070293,108.084452 142.070293,96.1089677 149.457814,88.7225161 Z" id="Stroke-40"></path>
            </g>
        </g>
    </g>
</svg>