<?xml version="1.0" encoding="UTF-8"?>
<svg width="143px" height="144px" viewBox="0 0 143 144" version="1.1" xmlns="http://www.w3.org/2000/svg" xmlns:xlink="http://www.w3.org/1999/xlink">
    <!-- Generator: Sketch 53.2 (72643) - https://sketchapp.com -->
    <title>9</title>
    <desc>Created with Sketch.</desc>
    <g id="Icons" stroke="none" stroke-width="1" fill="none" fill-rule="evenodd">
        <g id="Artboard-Copy" transform="translate(-802.000000, -781.000000)" stroke="#0BD080" stroke-width="4">
            <g id="9" transform="translate(804.179745, 783.420258)">
                <path d="M5.68434189e-14,69.3548387 C5.68434189e-14,31.0509677 31.0581755,-2.84217094e-14 69.3709378,-2.84217094e-14 C107.683055,-2.84217094e-14 138.741876,31.0509677 138.741876,69.3548387 C138.741876,107.658065 107.683055,138.709677 69.3709378,138.709677 C31.0581755,138.709677 5.68434189e-14,107.658065 5.68434189e-14,69.3548387 Z" id="Stroke-65"></path>
                <path d="M17.4574062,69.2571613 C17.4574062,40.5739355 40.7150617,17.3216774 69.4049457,17.3216774 C98.0948296,17.3216774 121.352485,40.5739355 121.352485,69.2571613 C121.352485,97.9403871 98.0948296,121.192645 69.4049457,121.192645 C40.7150617,121.192645 17.4574062,97.9403871 17.4574062,69.2571613 Z" id="Stroke-66" stroke-dasharray="4,4"></path>
            </g>
        </g>
    </g>
</svg>