<?xml version="1.0" standalone="no"?>
<!DOCTYPE svg PUBLIC "-//W3C//DTD SVG 20010904//EN"
 "http://www.w3.org/TR/2001/REC-SVG-20010904/DTD/svg10.dtd">
<svg version="1.0" xmlns="http://www.w3.org/2000/svg"
 width="959.000000pt" height="959.000000pt" viewBox="0 0 959.000000 959.000000"
 preserveAspectRatio="xMidYMid meet">
<metadata>
Created by potrace 1.11, written by Peter Selinger 2001-2013
</metadata>
<g transform="translate(0.000000,959.000000) scale(0.100000,-0.100000)"
fill="#000000" stroke="none">
<path d="M4465 9584 c-22 -2 -89 -9 -150 -14 -850 -81 -1700 -411 -2390 -928
-356 -267 -710 -621 -977 -977 -463 -619 -775 -1358 -893 -2120 -46 -298 -50
-365 -50 -750 0 -385 4 -452 50 -750 118 -762 430 -1501 893 -2120 267 -356
621 -710 977 -977 619 -463 1358 -775 2120 -893 298 -46 365 -50 750 -50 385
0 452 4 750 50 762 118 1501 430 2120 893 356 267 710 621 977 977 463 619
775 1358 893 2120 46 298 50 365 50 750 0 385 -4 452 -50 750 -118 762 -430
1501 -893 2120 -267 356 -621 710 -977 977 -606 454 -1343 768 -2083 887 -282
46 -370 52 -727 56 -192 1 -368 1 -390 -1z m1051 -2317 c453 -80 824 -272
1119 -578 623 -646 710 -1609 214 -2349 -195 -290 -450 -510 -769 -664 -308
-148 -573 -203 -929 -193 -230 6 -384 34 -591 104 -81 27 -302 132 -387 183
l-53 32 0 -594 0 -593 -430 -161 -430 -162 0 1664 0 1664 429 0 429 0 5 -212
c4 -191 7 -223 31 -306 66 -235 209 -444 405 -593 193 -146 479 -231 719 -215
287 20 525 129 723 333 162 166 254 341 295 560 22 120 15 355 -15 464 -112
409 -436 715 -848 798 -99 21 -127 21 -1552 21 l-1451 0 0 410 0 411 1498 -4
c1325 -3 1507 -6 1588 -20z"/>
</g>
</svg>
